# xmcd
#
# Track frame offsets: 
#        150
#        14135
#        34618
#        51803
#        78490
#        99783
#        118005
#        137555
#        156505
#        174925
#        193850
#        210710
#        230153
#        249535
#        271695
#        298763
#
# Disc length: 4337 seconds
#
# Revision: 2
# Processed by: cddbd v1.5.2PL0 Copyright (c) Steve Scherf et al.
# Submitted via: ExactAudioCopy v0.95b3
#
DISCID=e310ef10
DTITLE=Genghis Khan - Best Of Genghis Khan - Special Edition [VIZP-38]
DYEAR=2006
DGENRE=Pop
TTITLE0=Dschinghis Khan
TTITLE1=Moskau
TTITLE2=Hadschi Halef Omar
TTITLE3=Rom
TTITLE4=Samurai
TTITLE5=Machu Picchu
TTITLE6=Pistolero
TTITLE7=Lareley
TTITLE8=Wir Sitzen Alle Im Selben Boot
TTITLE9=Klabautermann
TTITLE10=Der Dudelmoser
TTITLE11=Himalaja
TTITLE12=Ole Ole
TTITLE13=Mexico
TTITLE14=Moskau (Album Version)
TTITLE15=The Story Of Genghis Khan (Long Version)
EXTD=YEAR: 2006
EXTT0=
EXTT1=
EXTT2=
EXTT3=
EXTT4=
EXTT5=
EXTT6=
EXTT7=
EXTT8=
EXTT9=
EXTT10=
EXTT11=
EXTT12=
EXTT13=
EXTT14=
EXTT15=
PLAYORDER=
